<svg xmlns="http://www.w3.org/2000/svg" xmlns:xlink="http://www.w3.org/1999/xlink" width="500" zoomAndPan="magnify" viewBox="0 0 375 374.999991" height="500" preserveAspectRatio="xMidYMid meet" version="1.0"><defs><g/><clipPath id="4a7ea46295"><path d="M 0 112.609375 L 366 112.609375 L 366 276.109375 L 0 276.109375 Z M 0 112.609375 " clip-rule="nonzero"/></clipPath></defs><rect x="-37.5" width="450" fill="#ffffff" y="-37.499999" height="449.999989" fill-opacity="1"/><rect x="-37.5" width="450" fill="#ffffff" y="-37.499999" height="449.999989" fill-opacity="1"/><g clip-path="url(#4a7ea46295)"><path stroke-linecap="butt" transform="matrix(0.0386906, 0, 0, -0.0386251, -49.143496, 450.34869)" fill="none" stroke-linejoin="miter" d="M 1275.214907 4555.538275 L 2281.798654 4555.538275 L 2281.798654 5854.989208 L 3816.914591 7125.920789 L 3816.914591 4555.538275 L 3061.926299 4555.538275 L 3061.926299 5653.73562 L 5326.790212 5653.73562 L 5326.790212 4555.538275 L 4873.878006 4555.538275 L 4873.878006 8698.732751 L 6937.42517 8698.732751 L 6937.42517 4555.538275 L 7478.476554 4555.538275 L 7478.476554 7679.519855 L 8950.592665 7679.519855 L 8950.592665 4555.538275 L 8069.806646 4555.538275 L 8069.806646 6627.135513 L 9869.138195 5691.458026 L 9869.138195 4555.538275 L 10724.784862 4555.538275 " stroke="#000000" stroke-width="90" stroke-opacity="1" stroke-miterlimit="10"/></g><path fill="#000000" d="M 169.257812 171.222656 L 160.496094 171.222656 L 160.496094 144.976562 L 169.257812 144.976562 L 169.257812 171.222656 " fill-opacity="1" fill-rule="nonzero"/><path fill="#000000" d="M 197.003906 190.175781 L 188.242188 190.175781 L 188.242188 163.933594 L 197.003906 163.933594 L 197.003906 190.175781 " fill-opacity="1" fill-rule="nonzero"/><path fill="#000000" d="M 197.003906 237.320312 L 188.242188 237.320312 L 188.242188 211.074219 L 197.003906 211.074219 L 197.003906 237.320312 " fill-opacity="1" fill-rule="nonzero"/><path fill="#000000" d="M 266.25 180.578125 L 247.503906 180.578125 L 247.503906 161.867188 L 266.25 161.867188 L 266.25 180.578125 " fill-opacity="1" fill-rule="nonzero"/><path fill="#000000" d="M 84.722656 257.457031 L 75.394531 257.457031 L 75.394531 242.882812 L 84.722656 242.882812 L 84.722656 257.457031 " fill-opacity="1" fill-rule="nonzero"/><g fill="#000000" fill-opacity="1"><g transform="translate(82.113846, 318.175315)"><g><path d="M 17.289062 0 L 1.570312 0 L 1.570312 -22.007812 L 17.289062 -22.007812 C 18.402344 -22.007812 19.433594 -21.722656 20.386719 -21.15625 C 21.339844 -20.589844 22.109375 -19.835938 22.699219 -18.894531 C 23.285156 -17.949219 23.578125 -16.890625 23.578125 -15.71875 C 23.578125 -13.832031 22.863281 -12.261719 21.441406 -11.003906 C 22.863281 -9.746094 23.578125 -8.171875 23.578125 -6.289062 C 23.578125 -5.15625 23.300781 -4.117188 22.746094 -3.175781 C 22.1875 -2.230469 21.433594 -1.476562 20.480469 -0.910156 C 19.527344 -0.347656 18.464844 -0.0429688 17.289062 0 Z M 17.289062 -9.429688 L 4.714844 -9.429688 L 4.714844 -3.144531 L 17.289062 -3.144531 C 18.148438 -3.144531 18.886719 -3.453125 19.507812 -4.070312 C 20.125 -4.6875 20.433594 -5.429688 20.433594 -6.289062 C 20.433594 -7.148438 20.125 -7.886719 19.507812 -8.503906 C 18.886719 -9.121094 18.148438 -9.429688 17.289062 -9.429688 Z M 4.714844 -18.863281 L 4.714844 -12.574219 L 17.289062 -12.574219 C 18.148438 -12.574219 18.886719 -12.882812 19.507812 -13.503906 C 20.125 -14.121094 20.433594 -14.859375 20.433594 -15.71875 C 20.433594 -16.578125 20.125 -17.316406 19.507812 -17.933594 C 18.886719 -18.554688 18.148438 -18.863281 17.289062 -18.863281 Z M 4.714844 -18.863281 "/></g></g></g><g fill="#000000" fill-opacity="1"><g transform="translate(106.942901, 318.175315)"><g><path d="M 20.433594 -6.289062 L 20.433594 -22.007812 L 23.578125 -22.007812 L 23.578125 -6.289062 C 23.578125 -5.175781 23.300781 -4.144531 22.746094 -3.191406 C 22.1875 -2.238281 21.433594 -1.46875 20.480469 -0.878906 C 19.527344 -0.292969 18.464844 0 17.289062 0 L 7.859375 0 C 6.75 0 5.710938 -0.277344 4.746094 -0.832031 C 3.78125 -1.386719 3.011719 -2.144531 2.4375 -3.097656 C 1.859375 -4.050781 1.570312 -5.113281 1.570312 -6.289062 L 1.570312 -22.007812 L 4.714844 -22.007812 L 4.714844 -6.289062 C 4.714844 -5.429688 5.023438 -4.6875 5.644531 -4.070312 C 6.261719 -3.453125 7 -3.144531 7.859375 -3.144531 L 17.289062 -3.144531 C 18.148438 -3.144531 18.886719 -3.453125 19.507812 -4.070312 C 20.125 -4.6875 20.433594 -5.429688 20.433594 -6.289062 Z M 20.433594 -6.289062 "/></g></g></g><g fill="#000000" fill-opacity="1"><g transform="translate(132.086246, 318.175315)"><g><path d="M 1.570312 -22.007812 L 4.714844 -22.007812 L 4.714844 0 L 1.570312 0 Z M 1.570312 -22.007812 "/></g></g></g><g fill="#000000" fill-opacity="1"><g transform="translate(138.372091, 318.175315)"><g><path d="M 4.714844 -22.007812 L 4.714844 -3.144531 L 23.578125 -3.144531 L 23.578125 0 L 1.570312 0 L 1.570312 -22.007812 Z M 4.714844 -22.007812 "/></g></g></g><g fill="#000000" fill-opacity="1"><g transform="translate(161.94397, 318.175315)"><g><path d="M 20.433594 -6.289062 L 20.433594 -15.71875 C 20.433594 -16.578125 20.125 -17.316406 19.507812 -17.933594 C 18.886719 -18.554688 18.148438 -18.863281 17.289062 -18.863281 L 4.714844 -18.863281 L 4.714844 -3.144531 L 17.289062 -3.144531 C 18.148438 -3.144531 18.886719 -3.453125 19.507812 -4.070312 C 20.125 -4.6875 20.433594 -5.429688 20.433594 -6.289062 Z M 23.578125 -15.71875 L 23.578125 -6.289062 C 23.578125 -5.175781 23.300781 -4.144531 22.746094 -3.191406 C 22.1875 -2.238281 21.433594 -1.46875 20.480469 -0.878906 C 19.527344 -0.292969 18.464844 0 17.289062 0 L 1.570312 0 L 1.570312 -22.007812 L 17.289062 -22.007812 C 18.421875 -22.007812 19.453125 -21.722656 20.386719 -21.15625 C 21.320312 -20.589844 22.078125 -19.835938 22.667969 -18.894531 C 23.253906 -17.949219 23.558594 -16.890625 23.578125 -15.71875 Z M 23.578125 -15.71875 "/></g></g></g><g fill="#000000" fill-opacity="1"><g transform="translate(186.773026, 318.175315)"><g/></g></g><g fill="#000000" fill-opacity="1"><g transform="translate(199.344698, 318.175315)"><g><path d="M 20.433594 -3.144531 L 23.578125 -3.144531 C 24.4375 -3.144531 25.175781 -3.453125 25.792969 -4.070312 C 26.414062 -4.6875 26.722656 -5.429688 26.722656 -6.289062 L 26.722656 -22.007812 L 29.863281 -22.007812 L 29.863281 -6.289062 C 29.863281 -5.175781 29.585938 -4.144531 29.03125 -3.191406 C 28.476562 -2.238281 27.722656 -1.46875 26.769531 -0.878906 C 25.816406 -0.292969 24.75 0 23.578125 0 L 20.433594 0 C 18.546875 0 16.976562 -0.710938 15.71875 -2.136719 C 14.460938 -0.710938 12.890625 0 11.003906 0 L 7.859375 0 C 6.75 0 5.710938 -0.277344 4.746094 -0.832031 C 3.78125 -1.386719 3.011719 -2.144531 2.4375 -3.097656 C 1.859375 -4.050781 1.570312 -5.113281 1.570312 -6.289062 L 1.570312 -22.007812 L 4.714844 -22.007812 L 4.714844 -6.289062 C 4.714844 -5.429688 5.023438 -4.6875 5.644531 -4.070312 C 6.261719 -3.453125 7 -3.144531 7.859375 -3.144531 L 11.003906 -3.144531 C 11.863281 -3.144531 12.601562 -3.453125 13.21875 -4.070312 C 13.835938 -4.6875 14.148438 -5.429688 14.148438 -6.289062 L 14.148438 -22.007812 L 17.289062 -22.007812 L 17.289062 -6.289062 C 17.289062 -5.429688 17.597656 -4.6875 18.21875 -4.070312 C 18.835938 -3.453125 19.574219 -3.144531 20.433594 -3.144531 Z M 20.433594 -3.144531 "/></g></g></g><g fill="#000000" fill-opacity="1"><g transform="translate(230.773888, 318.175315)"><g><path d="M 1.570312 -22.007812 L 4.714844 -22.007812 L 4.714844 0 L 1.570312 0 Z M 1.570312 -22.007812 "/></g></g></g><g fill="#000000" fill-opacity="1"><g transform="translate(237.059733, 318.175315)"><g><path d="M 23.261719 -6.289062 C 23.261719 -5.175781 22.984375 -4.144531 22.429688 -3.191406 C 21.875 -2.238281 21.121094 -1.46875 20.167969 -0.878906 C 19.214844 -0.292969 18.148438 0 16.976562 0 L 7.542969 0 C 6.414062 0 5.375 -0.277344 4.433594 -0.832031 C 3.488281 -1.386719 2.734375 -2.144531 2.167969 -3.097656 C 1.601562 -4.050781 1.300781 -5.113281 1.257812 -6.289062 L 4.402344 -6.289062 C 4.402344 -5.429688 4.710938 -4.6875 5.328125 -4.070312 C 5.945312 -3.453125 6.6875 -3.144531 7.542969 -3.144531 L 16.976562 -3.144531 C 17.835938 -3.144531 18.574219 -3.453125 19.191406 -4.070312 C 19.808594 -4.6875 20.121094 -5.429688 20.121094 -6.289062 C 20.121094 -7.148438 19.808594 -7.886719 19.191406 -8.503906 C 18.574219 -9.121094 17.835938 -9.429688 16.976562 -9.429688 L 7.542969 -9.429688 C 6.433594 -9.429688 5.398438 -9.707031 4.433594 -10.265625 C 3.46875 -10.820312 2.699219 -11.574219 2.121094 -12.527344 C 1.546875 -13.480469 1.257812 -14.542969 1.257812 -15.71875 C 1.257812 -16.828125 1.535156 -17.863281 2.089844 -18.816406 C 2.644531 -19.769531 3.402344 -20.539062 4.355469 -21.125 C 5.308594 -21.710938 6.371094 -22.007812 7.542969 -22.007812 L 16.976562 -22.007812 C 18.109375 -22.007812 19.140625 -21.722656 20.074219 -21.15625 C 21.003906 -20.589844 21.765625 -19.835938 22.351562 -18.894531 C 22.9375 -17.949219 23.242188 -16.890625 23.261719 -15.71875 L 20.121094 -15.71875 C 20.121094 -16.578125 19.808594 -17.316406 19.191406 -17.933594 C 18.574219 -18.554688 17.835938 -18.863281 16.976562 -18.863281 L 7.542969 -18.863281 C 6.6875 -18.863281 5.945312 -18.554688 5.328125 -17.933594 C 4.710938 -17.316406 4.402344 -16.578125 4.402344 -15.71875 C 4.402344 -14.859375 4.710938 -14.121094 5.328125 -13.503906 C 5.945312 -12.882812 6.6875 -12.574219 7.542969 -12.574219 L 16.976562 -12.574219 C 18.085938 -12.574219 19.117188 -12.292969 20.074219 -11.726562 C 21.027344 -11.160156 21.796875 -10.40625 22.382812 -9.460938 C 22.96875 -8.519531 23.261719 -7.460938 23.261719 -6.289062 Z M 23.261719 -6.289062 "/></g></g></g><g fill="#000000" fill-opacity="1"><g transform="translate(261.574499, 318.175315)"><g><path d="M 4.714844 -18.863281 L 4.714844 -12.574219 L 20.433594 -12.574219 L 20.433594 -9.429688 L 4.714844 -9.429688 L 4.714844 -3.144531 L 23.578125 -3.144531 L 23.578125 0 L 1.570312 0 L 1.570312 -22.007812 L 23.578125 -22.007812 L 23.578125 -18.863281 Z M 4.714844 -18.863281 "/></g></g></g></svg>