<svg xmlns="http://www.w3.org/2000/svg" xmlns:xlink="http://www.w3.org/1999/xlink" width="500" zoomAndPan="magnify" viewBox="0 0 375 374.999991" height="500" preserveAspectRatio="xMidYMid meet" version="1.0"><defs><g/><clipPath id="a527570b10"><path d="M 0 24.214844 L 375 24.214844 L 375 350.464844 L 0 350.464844 Z M 0 24.214844 " clip-rule="nonzero"/></clipPath></defs><rect x="-37.5" width="450" fill="#ffffff" y="-37.499999" height="449.999989" fill-opacity="1"/><rect x="-37.5" width="450" fill="#ffffff" y="-37.499999" height="449.999989" fill-opacity="1"/><path fill="#010101" d="M 147.183594 205.007812 L 147.183594 211.992188 L 162.789062 211.992188 L 162.789062 227.9375 L 153.824219 227.9375 L 153.824219 233.109375 L 162.789062 233.109375 L 162.789062 241.382812 L 167.960938 241.382812 L 167.960938 233.109375 L 209 233.109375 L 209 251.8125 L 214.777344 251.8125 L 214.777344 233.109375 L 222.449219 233.109375 L 222.449219 227.9375 L 214.777344 227.9375 L 214.777344 211.992188 L 215.808594 211.992188 L 215.808594 205.007812 L 214.777344 205.007812 L 214.777344 188.71875 L 222.449219 188.71875 L 222.449219 181.738281 L 214.777344 181.738281 L 214.777344 175.359375 L 209 175.359375 L 209 181.738281 L 167.960938 181.738281 L 167.960938 172.6875 L 162.789062 172.6875 L 162.789062 181.738281 L 153.824219 181.738281 L 153.824219 188.71875 L 162.789062 188.71875 L 162.789062 205.007812 Z M 209.085938 227.9375 L 168.046875 227.9375 L 168.046875 211.992188 L 209.085938 211.992188 Z M 168.046875 188.71875 L 209.085938 188.71875 L 209.085938 205.007812 L 168.046875 205.007812 Z M 168.046875 188.71875 " fill-opacity="1" fill-rule="evenodd"/><g clip-path="url(#a527570b10)"><path fill="#010101" d="M 379.871094 285.6875 L 354.09375 285.6875 L 354.09375 282.496094 L 350.90625 282.496094 L 350.90625 24.351562 L 348.835938 24.351562 L 348.835938 248.277344 L 287.453125 187.425781 L 286.675781 123.644531 L 279.519531 123.730469 L 280.210938 180.273438 L 269.003906 169.152344 L 269.089844 89.339844 L 261.933594 89.339844 L 261.847656 162 L 202.535156 103.214844 L 216.929688 88.992188 L 308.574219 88.992188 L 308.574219 86.925781 L 219 86.925781 L 266.589844 39.863281 L 265.125 38.398438 L 216.070312 86.925781 L 191.5 86.925781 L 211.757812 66.929688 L 210.292969 65.464844 L 188.566406 86.925781 L 48.902344 86.925781 L 48.902344 83.824219 L 45.800781 83.824219 L 45.800781 56.585938 L 43.730469 56.585938 L 43.730469 83.824219 L 40.539062 83.824219 L 40.539062 86.925781 L 14.675781 86.925781 L 14.675781 88.992188 L 40.453125 88.992188 L 40.453125 92.183594 L 43.644531 92.183594 L 43.644531 230.175781 L -16.878906 289.996094 L -15.410156 291.460938 L 43.558594 233.195312 L 43.558594 257.671875 L 30.109375 270.945312 L 31.574219 272.410156 L 43.558594 260.605469 L 43.558594 350.328125 L 45.625 350.328125 L 45.625 258.535156 L 46.574219 257.585938 L 50.28125 261.378906 L 185.464844 128.644531 L 261.675781 201.21875 L 261.589844 285.597656 L 85.972656 285.597656 L 85.972656 287.753906 L 345.644531 287.753906 L 345.644531 290.855469 L 348.75 290.855469 L 348.75 318.179688 L 350.820312 318.179688 L 350.820312 290.855469 L 354.007812 290.855469 L 354.007812 287.753906 L 379.785156 287.753906 L 379.785156 285.6875 Z M 280.296875 190.441406 L 280.554688 209.320312 L 268.917969 198.285156 L 268.917969 179.238281 Z M 213.914062 88.992188 L 201.066406 101.75 L 188.824219 89.597656 L 189.429688 88.992188 Z M 41.832031 85.289062 L 47.351562 85.289062 L 47.351562 90.804688 L 41.832031 90.804688 Z M 45.625 92.269531 L 48.730469 92.269531 L 48.730469 88.992188 L 186.238281 88.992188 L 45.625 228.109375 Z M 45.625 231.125 L 59.074219 217.851562 L 64.078125 222.851562 L 188.394531 99.335938 L 195.894531 106.835938 L 45.625 255.605469 Z M 186.238281 119.421875 L 197.445312 108.300781 L 261.761719 172.082031 L 261.761719 191.390625 Z M 268.917969 208.113281 L 280.640625 219.316406 L 281.417969 285.6875 L 268.746094 285.6875 Z M 288.574219 285.6875 L 287.882812 226.210938 L 294.867188 232.847656 L 299.78125 227.679688 L 287.796875 216.214844 L 287.539062 197.683594 L 345.472656 255.171875 L 348.75 251.8125 L 348.75 282.496094 L 345.644531 282.496094 L 345.644531 285.6875 Z M 352.628906 289.390625 L 347.113281 289.390625 L 347.113281 283.875 L 352.628906 283.875 Z M 352.628906 289.390625 " fill-opacity="1" fill-rule="evenodd"/></g><g fill="#242424" fill-opacity="1"><g transform="translate(184.956109, 248.379008)"><g><path d="M 2.53125 0.125 C 2.195312 0.125 1.925781 0.0195312 1.71875 -0.1875 C 1.519531 -0.394531 1.421875 -0.65625 1.421875 -0.96875 C 1.421875 -1.28125 1.519531 -1.535156 1.71875 -1.734375 C 1.925781 -1.941406 2.195312 -2.046875 2.53125 -2.046875 C 2.863281 -2.046875 3.128906 -1.941406 3.328125 -1.734375 C 3.535156 -1.535156 3.640625 -1.28125 3.640625 -0.96875 C 3.640625 -0.65625 3.535156 -0.394531 3.328125 -0.1875 C 3.128906 0.0195312 2.863281 0.125 2.53125 0.125 Z M 2.53125 0.125 "/></g></g></g></svg>